<?xml version="1.0" standalone="no"?>
<!DOCTYPE svg PUBLIC "-//W3C//DTD SVG 20010904//EN"
 "http://www.w3.org/TR/2001/REC-SVG-20010904/DTD/svg10.dtd">
<svg version="1.0" xmlns="http://www.w3.org/2000/svg"
 width="492.000000pt" height="492.000000pt" viewBox="0 0 492.000000 492.000000"
 preserveAspectRatio="xMidYMid meet">
<metadata>
Created by potrace 1.11, written by Peter Selinger 2001-2013
</metadata>
<g transform="translate(0.000000,492.000000) scale(0.100000,-0.100000)"
fill="#000000" stroke="none">
<path d="M2435 4840 c-3 -5 -1 -10 4 -10 6 0 11 5 11 10 0 6 -2 10 -4 10 -3 0
-8 -4 -11 -10z"/>
<path d="M2429 4803 c0 -10 -2 -29 -5 -43 -8 -47 -56 -355 -60 -390 -3 -19 -9
-60 -14 -90 -5 -30 -12 -73 -15 -94 -3 -22 -8 -42 -10 -45 -3 -2 -19 8 -35 24
-34 33 -31 40 -34 -85 -1 -68 1 -77 24 -100 31 -31 31 -47 0 -215 -5 -27 -12
-75 -16 -105 -4 -30 -8 -57 -9 -60 -3 -13 -16 -90 -21 -125 -3 -22 -9 -65 -14
-95 -5 -30 -12 -73 -15 -95 -3 -23 -8 -52 -10 -65 -3 -14 -7 -42 -10 -63 -3
-21 -7 -48 -10 -60 -2 -12 -7 -40 -10 -62 -7 -48 -24 -158 -31 -200 -3 -16 -7
-43 -10 -60 -5 -41 -13 -77 -16 -80 -2 -1 -28 -16 -58 -35 -64 -38 -147 -115
-195 -180 -68 -92 -127 -234 -134 -324 -1 -5 -13 3 -27 18 -26 25 -40 30 -77
26 -10 -1 -29 5 -42 14 -23 15 -23 15 -19 -21 6 -44 3 -42 50 -58 21 -7 40
-18 42 -24 6 -18 -29 -25 -62 -12 -59 24 -82 21 -116 -14 l-32 -33 31 -31 c36
-35 64 -39 115 -14 29 13 38 14 51 3 23 -19 19 -26 -24 -39 -23 -7 -42 -19
-46 -30 -12 -39 -14 -61 -4 -61 5 0 9 5 9 10 0 6 20 10 44 10 34 0 50 6 74 28
l30 28 6 -39 c8 -50 50 -169 74 -210 14 -24 17 -46 14 -89 -4 -65 2 -61 -100
-58 -46 1 -53 -1 -52 -17 1 -10 2 -32 1 -48 l-1 -31 -69 1 -68 1 -2 -53 c-1
-45 1 -53 16 -53 10 -1 166 -1 347 -1 181 0 338 -4 350 -9 12 -4 44 -11 71
-14 28 -4 59 -9 69 -13 17 -5 15 -7 -12 -18 -30 -13 -64 -54 -69 -84 -10 -62
77 -161 144 -163 58 -2 139 75 147 139 5 40 -22 85 -64 105 -19 9 -28 18 -21
22 6 4 11 5 11 3 0 -3 38 3 84 13 72 16 131 19 422 18 l339 0 1 54 2 54 -65
-1 c-35 -1 -66 2 -69 6 -2 4 -5 26 -6 49 -1 39 -3 41 -32 40 -17 -1 -50 -2
-72 -1 l-42 1 -4 57 c-4 45 -1 64 18 97 33 60 71 178 73 228 1 13 7 10 30 -13
22 -21 38 -28 65 -27 19 1 41 -4 49 -10 19 -16 28 -4 20 27 -8 32 -26 51 -50
51 -10 0 -25 5 -33 10 -13 8 -13 11 1 25 15 15 19 15 54 1 55 -23 79 -20 117
17 l34 32 -30 25 c-48 41 -54 43 -105 24 -49 -17 -86 -14 -79 8 3 7 18 16 35
20 38 10 53 28 58 68 4 27 2 30 -11 19 -8 -6 -36 -14 -61 -15 -37 -3 -52 -9
-69 -31 l-21 -27 -12 53 c-29 137 -98 262 -200 361 -77 75 -93 88 -144 115
-20 11 -37 22 -38 25 0 3 -2 14 -4 25 -8 43 -24 142 -30 180 -3 23 -7 52 -10
65 -9 44 -18 105 -21 135 -1 17 -3 30 -4 30 -2 0 -3 8 -26 160 -3 17 -9 55
-14 85 -13 76 -18 108 -25 160 -7 49 -31 200 -39 240 -3 14 -8 45 -11 70 -3
25 -7 54 -9 65 -4 23 18 71 36 77 12 4 19 198 7 198 -3 0 -16 -11 -29 -25 -13
-14 -27 -25 -31 -25 -3 0 -14 51 -24 113 -9 61 -19 121 -20 132 -2 11 -6 38
-10 60 -3 22 -10 67 -15 100 -5 33 -12 77 -16 99 -3 21 -7 46 -9 55 -1 9 -6
40 -10 69 -6 49 -24 73 -26 35z m463 -2325 c54 -56 99 -127 131 -210 34 -85
35 -108 3 -108 -17 0 -28 -9 -37 -29 -12 -27 -16 -28 -86 -30 -40 -1 -82 -4
-93 -6 -11 -2 -20 2 -21 8 0 7 -1 48 -3 92 -2 74 0 82 29 126 29 42 32 53 31
123 -1 42 0 76 2 76 1 0 21 -19 44 -42z m-858 -40 c-1 -66 2 -77 29 -116 29
-40 31 -49 32 -128 0 -69 -3 -88 -16 -95 -9 -4 -19 -6 -22 -3 -3 3 -36 5 -75
5 -65 0 -70 2 -91 29 -12 17 -30 30 -41 30 -25 0 -25 16 0 90 32 94 143 260
174 260 7 0 11 -28 10 -72z m-204 -388 c0 -5 -5 -10 -11 -10 -5 0 -7 5 -4 10
3 6 8 10 11 10 2 0 4 -4 4 -10z m1240 6 c0 -3 -4 -8 -10 -11 -5 -3 -10 -1 -10
4 0 6 5 11 10 11 6 0 10 -2 10 -4z m-1005 -87 c-17 -18 -36 -39 -42 -47 -8 -8
-13 -43 -13 -93 l0 -80 -62 3 -63 3 -23 59 c-27 66 -39 128 -26 124 19 -5 53
14 59 32 7 22 17 25 120 28 l80 3 -30 -32z m902 22 c6 -1 14 -10 18 -20 6 -18
40 -38 58 -33 14 4 6 -45 -21 -113 l-27 -70 -63 -3 -62 -3 0 80 c0 69 -3 83
-22 103 -13 13 -32 34 -43 47 l-19 22 84 -5 c47 -2 90 -5 97 -5z"/>
<path d="M1420 1318 c0 -13 126 -135 173 -167 40 -27 151 -83 160 -80 1 1 36
-2 77 -5 110 -10 343 -16 336 -8 -4 3 -14 7 -23 8 -10 2 -26 7 -38 12 -100 46
-150 75 -210 122 -109 87 -139 102 -235 116 -62 8 -240 11 -240 2z"/>
<path d="M3266 1322 c-2 -1 -20 -4 -42 -7 -21 -2 -46 -6 -54 -8 -27 -5 -125
-53 -140 -68 -73 -71 -227 -160 -302 -174 -52 -10 -18 -13 119 -10 282 7 343
22 463 114 43 32 150 140 150 151 0 5 -189 7 -194 2z"/>
<path d="M1868 1312 c-16 -2 -28 -7 -28 -12 0 -13 90 -89 160 -135 79 -52 171
-91 236 -99 27 -3 61 -8 76 -11 15 -3 30 -1 33 5 3 5 1 10 -4 10 -18 0 -70 80
-93 142 -23 63 -47 86 -99 95 -37 6 -242 9 -281 5z"/>
<path d="M2827 1313 c-2 -1 -29 -3 -60 -4 -82 -3 -107 -22 -141 -109 -16 -40
-45 -91 -65 -113 l-35 -39 39 6 c96 15 113 18 158 33 68 21 153 68 222 123 69
55 101 88 92 96 -5 6 -205 13 -210 7z"/>
<path d="M2160 1033 c-111 -13 -145 -26 -219 -80 -42 -31 -78 -59 -81 -63 -20
-27 -121 -81 -180 -96 -38 -10 -70 -21 -70 -25 0 -13 47 -18 121 -14 153 8
217 37 329 150 45 46 100 93 121 103 41 20 32 31 -21 25z"/>
<path d="M2245 1015 c-47 -23 -75 -44 -223 -170 -33 -27 -68 -55 -78 -61 -10
-7 -16 -15 -12 -19 7 -7 131 -10 160 -3 36 8 74 47 107 109 18 35 51 88 73
117 21 28 35 52 31 52 -4 -1 -30 -12 -58 -25z"/>
<path d="M2353 1015 c-117 -71 -105 -248 20 -300 45 -19 118 -12 161 14 99 62
99 218 0 280 -59 38 -125 40 -181 6z"/>
<path d="M2609 989 c20 -26 47 -70 60 -96 66 -129 96 -144 269 -134 20 1 14
16 -15 33 -16 9 -44 31 -63 48 -142 129 -209 177 -266 192 -19 5 -17 -1 15
-43z"/>
<path d="M2660 1033 c0 -1 14 -10 32 -19 36 -19 29 -13 140 -119 92 -90 125
-109 215 -129 66 -15 185 -18 218 -6 16 6 12 10 -25 20 -25 8 -50 14 -56 16
-39 7 -111 51 -189 113 -105 84 -123 94 -190 110 -48 10 -145 20 -145 14z"/>
<path d="M1755 1009 c-44 -9 -114 -32 -155 -51 -41 -19 -113 -47 -160 -62
-116 -38 -206 -86 -238 -128 -12 -15 -6 -16 90 -13 108 4 179 11 207 19 9 3
32 8 51 11 79 14 183 64 335 160 44 28 89 55 99 58 68 26 -111 30 -229 6z"/>
<path d="M2990 949 c232 -151 324 -181 599 -194 97 -5 103 -4 90 13 -33 41
-121 89 -231 126 -43 14 -120 44 -173 66 -120 52 -142 56 -320 65 l-90 4 125
-80z"/>
<path d="M1310 615 l0 -55 50 0 50 0 0 -144 0 -145 28 -3 c15 -2 38 -2 52 0
l26 4 -1 131 c-1 73 1 138 3 145 2 7 22 12 51 12 l47 0 -2 48 c-1 26 -2 50 -3
53 0 4 -68 7 -151 7 l-150 1 0 -54z"/>
<path d="M1648 663 c-2 -5 -3 -93 -3 -196 1 -127 4 -190 12 -195 9 -6 140 -7
245 -3 14 1 17 10 15 48 l-3 48 -79 0 -80 1 -1 32 c-1 31 1 32 40 33 23 1 53
0 68 -1 14 -1 29 4 33 9 9 15 10 70 1 78 -3 4 -37 6 -74 6 -65 -1 -68 0 -70
23 -2 26 1 27 88 26 69 -1 75 3 74 45 -1 21 -2 41 -3 45 -1 9 -259 10 -263 1z"/>
<path d="M1959 668 c-3 -17 0 -388 4 -394 4 -7 174 -10 243 -5 9 1 11 35 5 97
-1 6 -29 10 -73 10 l-73 -1 -1 135 c-1 74 -2 141 -3 148 -1 8 -18 12 -51 12
-27 0 -50 -1 -51 -2z"/>
<path d="M2350 648 c-19 -46 -112 -370 -107 -374 3 -3 18 -6 33 -6 65 -1 71 1
78 32 5 29 8 30 56 30 48 0 51 -1 57 -30 6 -31 7 -32 48 -32 79 0 75 -3 58 50
-8 26 -28 92 -44 147 -16 55 -37 124 -46 153 l-16 52 -54 0 c-46 0 -55 -3 -63
-22z m84 -219 c-2 -4 -14 -4 -28 -2 -22 5 -23 7 -14 41 6 21 13 41 16 47 6 10
31 -75 26 -86z"/>
<path d="M2608 658 c-3 -11 -3 -330 1 -378 1 -12 16 -15 79 -14 134 2 164 16
198 92 22 50 20 171 -4 226 -30 66 -57 80 -172 83 -73 3 -99 1 -102 -9z m170
-102 c10 -11 19 -80 16 -118 -5 -51 -18 -68 -53 -68 l-27 0 -1 101 0 101 30
-6 c17 -3 32 -8 35 -10z"/>
<path d="M3007 653 c-3 -10 -24 -76 -46 -148 -71 -233 -72 -235 -55 -236 84
-5 104 2 104 36 0 24 3 25 55 25 42 0 55 -4 56 -15 3 -28 4 -33 10 -39 7 -8
109 -13 109 -6 0 6 -19 78 -25 98 -6 16 -2 4 -50 162 l-41 135 -56 3 c-47 2
-57 0 -61 -15z m79 -208 c-1 -14 -7 -19 -21 -17 -26 5 -25 0 -13 57 l11 50 12
-35 c7 -19 11 -44 11 -55z"/>
<path d="M3267 664 c-3 -4 -6 -93 -7 -199 l0 -193 27 -3 c16 -2 39 -3 53 -1
26 3 26 3 23 99 l-2 97 19 -31 c10 -18 29 -53 42 -79 13 -25 27 -54 33 -64 6
-13 23 -19 58 -22 27 -2 51 -1 53 1 2 2 4 94 4 203 l0 198 -50 0 c-57 0 -52
11 -52 -127 0 -35 -1 -63 -3 -63 -2 0 -27 43 -55 95 l-51 95 -43 0 c-23 0 -45
-3 -49 -6z"/>
</g>
</svg>
